<?xml version="1.0" encoding="utf-8"?>
<svg xmlns="http://www.w3.org/2000/svg" viewBox="0 0 24 24" fill="#787c87"><path d="M 5 3 C 3.895 3 3 3.895 3 5 L 3 19 C 3 20.105 3.895 21 5 21 L 13.109375 21 C 11.638375 19.276 10.193469 16.746234 11.480469 13.990234 C 11.648469 13.631234 11.763 13.305 12 13 L 11.990234 13 C 11.438234 13 10.990234 12.552 10.990234 12 C 10.990234 11.448 11.438234 11 11.990234 11 L 16.064453 11 C 16.927453 11 17.741234 11.199703 18.490234 11.595703 C 19.239234 11.199703 20.052062 11 20.914062 11 L 20.921875 11 C 20.944875 11 20.967234 11.005859 20.990234 11.005859 L 20.990234 5 C 20.990234 3.895 20.095234 3 18.990234 3 L 5 3 z M 7.4902344 7 L 8.4902344 7 C 8.7662344 7 8.9902344 7.224 8.9902344 7.5 L 8.9902344 8.5 C 8.9902344 8.776 8.7672344 9 8.4902344 9 L 7.4902344 9 C 7.2142344 9 6.9902344 8.776 6.9902344 8.5 L 6.9902344 7.5 C 6.9902344 7.224 7.2142344 7 7.4902344 7 z M 11.990234 7 L 15.990234 7 C 16.542234 7 16.990234 7.448 16.990234 8 C 16.990234 8.552 16.542234 9 15.990234 9 L 11.990234 9 C 11.438234 9 10.990234 8.552 10.990234 8 C 10.990234 7.448 11.438234 7 11.990234 7 z M 7.4902344 11 L 8.4902344 11 C 8.7662344 11 8.9902344 11.224 8.9902344 11.5 L 8.9902344 12.5 C 8.9902344 12.776 8.7672344 13 8.4902344 13 L 7.4902344 13 C 7.2142344 13 6.9902344 12.776 6.9902344 12.5 L 6.9902344 11.5 C 6.9902344 11.224 7.2142344 11 7.4902344 11 z M 16.076172 12.998047 C 14.927172 13.000047 13.815734 13.738938 13.302734 14.835938 C 12.214734 17.164938 14.271547 19.500391 16.185547 21.275391 L 16.408203 21.482422 C 16.898203 21.951422 17.813 22.65125 18.5 23.15625 C 19.186 22.65125 20.099078 21.954141 20.580078 21.494141 L 20.810547 21.279297 C 22.727547 19.501297 24.785266 17.164938 23.697266 14.835938 C 23.185266 13.739937 22.072734 13.002 20.927734 13 L 20.923828 13 C 20.288828 13 19.694156 13.177391 19.160156 13.525391 L 18.501953 13.955078 L 17.841797 13.525391 C 17.306797 13.176391 16.711172 12.998047 16.076172 12.998047 z M 7.4902344 15 L 8.4902344 15 C 8.7662344 15 8.9902344 15.224 8.9902344 15.5 L 8.9902344 16.5 C 8.9902344 16.776 8.7672344 17 8.4902344 17 L 7.4902344 17 C 7.2142344 17 6.9902344 16.776 6.9902344 16.5 L 6.9902344 15.5 C 6.9902344 15.224 7.2142344 15 7.4902344 15 z" fill="#787c87"/></svg>
