<?xml version="1.0" encoding="utf-8"?>
<svg xmlns="http://www.w3.org/2000/svg" viewBox="0 0 24 24" fill="#787c87"><path d="M 8 2 C 6.895 2 6 2.895 6 4 L 6 16 C 6 17.105 6.895 18 8 18 L 20 18 C 21.105 18 22 17.105 22 16 L 22 4 C 22 2.895 21.105 2 20 2 L 8 2 z M 9 4 L 12 4 C 12.552 4 13 4.448 13 5 L 13 12 L 10.5 10.5 L 8 12 L 8 5 C 8 4.448 8.448 4 9 4 z M 3 6 C 2.448 6 2 6.448 2 7 L 2 20 C 2 21.1 2.9 22 4 22 L 17 22 C 17.552 22 18 21.552 18 21 C 18 20.448 17.552 20 17 20 L 4 20 L 4 7 C 4 6.448 3.552 6 3 6 z" fill="#787c87"/></svg>
