<?xml version="1.0" encoding="utf-8"?>
<svg xmlns="http://www.w3.org/2000/svg" viewBox="0 0 24 24" fill="#787c87"><path d="M 5 3 A 1.0001 1.0001 0 0 0 4 4 L 4 13 A 1.0001 1.0001 0 1 0 6 13 L 6 5 L 19 5 L 19 18 C 19 18.56503 18.56503 19 18 19 C 17.448 19 17 18.551 17 18 L 17 17 C 17 16.448 16.552 16 16 16 L 3 16 C 2.448 16 2 16.448 2 17 L 2 18 C 2 19.657 3.343 21 5 21 L 18 21 C 19.64497 21 21 19.64497 21 18 L 21 4 A 1.0001 1.0001 0 0 0 20 3 L 5 3 z M 8.5 8 C 8.224 8 8 8.224 8 8.5 L 8 9.5 C 8 9.776 8.224 10 8.5 10 L 9.5 10 C 9.776 10 10 9.776 10 9.5 L 10 8.5 C 10 8.224 9.776 8 9.5 8 L 8.5 8 z M 13 8 C 12.448 8 12 8.448 12 9 C 12 9.552 12.448 10 13 10 L 16 10 C 16.552 10 17 9.552 17 9 C 17 8.448 16.552 8 16 8 L 13 8 z M 8.5 12 C 8.224 12 8 12.224 8 12.5 L 8 13.5 C 8 13.776 8.224 14 8.5 14 L 9.5 14 C 9.776 14 10 13.776 10 13.5 L 10 12.5 C 10 12.224 9.776 12 9.5 12 L 8.5 12 z M 13 12 C 12.448 12 12 12.448 12 13 C 12 13.552 12.448 14 13 14 L 16 14 C 16.552 14 17 13.552 17 13 C 17 12.448 16.552 12 16 12 L 13 12 z" fill="#787c87"/></svg>
