<?xml version="1.0" encoding="utf-8"?>
<svg xmlns="http://www.w3.org/2000/svg" viewBox="0 0 24 24" fill="#787c87"><path d="M19,3h-4.184C14.403,1.837,13.304,1,12,1S9.597,1.837,9.184,3H5C3.895,3,3,3.895,3,5v14c0,1.105,0.895,2,2,2h14 c1.105,0,2-0.895,2-2V5C21,3.895,20.105,3,19,3z M7.5,16h-1C6.224,16,6,15.776,6,15.5v-1C6,14.224,6.224,14,6.5,14h1 C7.776,14,8,14.224,8,14.5v1C8,15.776,7.776,16,7.5,16z M7,11.5c-0.828,0-1.5-0.672-1.5-1.5S6.172,8.5,7,8.5S8.5,9.172,8.5,10 S7.828,11.5,7,11.5z M12,3c0.552,0,1,0.448,1,1c0,0.552-0.448,1-1,1s-1-0.448-1-1C11,3.448,11.448,3,12,3z M17,16h-5 c-0.552,0-1-0.448-1-1v0c0-0.552,0.448-1,1-1h5c0.552,0,1,0.448,1,1v0C18,15.552,17.552,16,17,16z M17,11h-5c-0.552,0-1-0.448-1-1 v0c0-0.552,0.448-1,1-1h5c0.552,0,1,0.448,1,1v0C18,10.552,17.552,11,17,11z" fill="#787c87"/></svg>
