<?xml version="1.0" encoding="utf-8"?>
<svg xmlns="http://www.w3.org/2000/svg" viewBox="0 0 24 24" fill="#787c87"><path d="M 4.7421875 2 L 3.0019531 2.0136719 C 2.4499531 2.0176719 2.0057656 2.4675313 2.0097656 3.0195312 C 2.0137656 3.5695313 2.4607656 4.0136719 3.0097656 4.0136719 L 3.015625 4.0136719 L 4.0859375 4.0058594 L 7.3789062 11.908203 L 6.1816406 13.822266 C 5.7816406 14.463266 5.76 15.270687 6.125 15.929688 C 6.492 16.590688 7.1874062 17 7.9414062 17 L 10.068359 17 C 10.155359 16.301 10.331891 15.631 10.587891 15 L 7.9414062 15 L 7.8789062 14.882812 L 9.0546875 13 L 11.761719 13 C 13.227719 11.173 15.475953 10 18.001953 10 C 18.447953 10 18.882594 10.045234 19.308594 10.115234 L 21.873047 5.484375 C 22.243047 4.818375 21.760047 4 20.998047 4 L 6.25 4 L 5.6738281 2.6152344 C 5.5178281 2.2402344 5.1661875 1.995 4.7421875 2 z M 18 12 C 14.691 12 12 14.691 12 18 C 12 21.309 14.691 24 18 24 C 21.309 24 24 21.309 24 18 C 24 14.691 21.309 12 18 12 z M 18.617188 15 L 19 15 L 19 20.375 C 19 20.927 18.552 21.375 18 21.375 C 17.448 21.375 17 20.927 17 20.375 L 17 17.259766 L 16.529297 17.435547 C 15.947297 17.505547 15.733531 17.229797 15.769531 16.716797 C 15.769531 16.382797 15.970297 16.082078 16.279297 15.955078 L 18.617188 15 z M 8 18 A 2 2 0 0 0 6 20 A 2 2 0 0 0 8 22 A 2 2 0 0 0 10 20 A 2 2 0 0 0 8 18 z" fill="#787c87"/></svg>
