<svg width="102" height="55" viewBox="0 0 102 55" fill="none" xmlns="http://www.w3.org/2000/svg">
<path d="M4.997 31.5071V42.2321H1.74414V25.4964H4.26628L12.9877 36.4807V25.52H16.2406V42.2321H13.6006L4.997 31.5071ZM39.0826 42.2321L34.5333 29.8807H37.7861L40.9211 39.6628L44.0797 29.8807H47.0497L42.5004 42.2321H39.0826ZM54.0092 42.4678C53.0192 42.4678 52.1235 42.3028 51.322 41.9728C50.5206 41.6271 49.837 41.1635 49.2713 40.5821C48.7056 40.0007 48.2656 39.325 47.9513 38.555C47.6527 37.785 47.5035 36.9757 47.5035 36.1271C47.5035 35.2471 47.6527 34.4221 47.9513 33.6521C48.2499 32.8664 48.682 32.1828 49.2477 31.6014C49.8135 31.0042 50.497 30.5328 51.2985 30.1871C52.1156 29.8414 53.027 29.6685 54.0327 29.6685C55.0385 29.6685 55.9342 29.8414 56.7199 30.1871C57.5213 30.5328 58.197 30.9964 58.747 31.5778C59.3127 32.1593 59.737 32.835 60.0199 33.605C60.3185 34.375 60.4677 35.1764 60.4677 36.0093C60.4677 36.2135 60.4599 36.41 60.4442 36.5985C60.4442 36.7871 60.4285 36.9442 60.397 37.07H50.8506C50.8977 37.5571 51.0156 37.9892 51.2042 38.3664C51.3927 38.7435 51.6363 39.0657 51.9349 39.3328C52.2335 39.6 52.5713 39.8043 52.9485 39.9457C53.3256 40.0871 53.7185 40.1578 54.127 40.1578C54.7556 40.1578 55.3449 40.0085 55.8949 39.71C56.4606 39.3957 56.8456 38.9871 57.0499 38.4842L59.7606 39.2385C59.3049 40.1814 58.5742 40.9592 57.5685 41.5721C56.5785 42.1692 55.392 42.4678 54.0092 42.4678ZM57.2149 35.0192C57.1363 34.0921 56.7906 33.3535 56.1777 32.8035C55.5806 32.2378 54.8499 31.955 53.9856 31.955C53.5613 31.955 53.1606 32.0335 52.7835 32.1907C52.422 32.3321 52.0999 32.5364 51.817 32.8035C51.5342 33.0707 51.2985 33.3928 51.1099 33.77C50.937 34.1471 50.8349 34.5635 50.8035 35.0192H57.2149ZM62.3684 25.025H65.527V38.2721C65.527 38.7278 65.637 39.0814 65.857 39.3328C66.077 39.5843 66.3913 39.71 66.7998 39.71C66.9884 39.71 67.1927 39.6785 67.4127 39.6157C67.6484 39.5528 67.8684 39.4743 68.0727 39.38L68.497 41.7842C68.0727 41.9885 67.5777 42.1457 67.012 42.2557C66.4462 42.3657 65.9355 42.4207 65.4798 42.4207C64.4898 42.4207 63.7198 42.1614 63.1698 41.6428C62.6355 41.1085 62.3684 40.3542 62.3684 39.38V25.025ZM69.8731 42.2321V29.8807H73.0317V42.2321H69.8731ZM69.8731 28.16V25.025H73.0317V28.16H69.8731ZM80.5482 42.4678C79.5111 42.4678 78.4975 42.3028 77.5075 41.9728C76.5175 41.6428 75.669 41.1714 74.9618 40.5585L76.1404 38.5785C76.8947 39.1128 77.6254 39.5214 78.3325 39.8042C79.0554 40.0714 79.7704 40.205 80.4775 40.205C81.1061 40.205 81.6011 40.0871 81.9625 39.8514C82.324 39.6157 82.5047 39.2778 82.5047 38.8378C82.5047 38.3978 82.2925 38.0757 81.8682 37.8714C81.444 37.6671 80.7525 37.4314 79.794 37.1642C78.9925 36.9443 78.309 36.7321 77.7432 36.5278C77.1775 36.3235 76.7218 36.0957 76.3761 35.8442C76.0304 35.5771 75.779 35.2785 75.6218 34.9485C75.4647 34.6028 75.3861 34.1942 75.3861 33.7228C75.3861 33.0942 75.504 32.5285 75.7397 32.0257C75.9911 31.5228 76.3368 31.0985 76.7768 30.7528C77.2168 30.3914 77.7275 30.1164 78.309 29.9278C78.9061 29.7392 79.5504 29.645 80.2418 29.645C81.169 29.645 82.0332 29.7785 82.8347 30.0457C83.6518 30.3128 84.3983 30.745 85.074 31.3421L83.8011 33.2514C83.1725 32.78 82.5597 32.4342 81.9625 32.2142C81.3811 31.9942 80.7997 31.8843 80.2183 31.8843C79.684 31.8843 79.2361 31.9942 78.8747 32.2142C78.5132 32.4342 78.3325 32.7878 78.3325 33.275C78.3325 33.495 78.3718 33.6757 78.4504 33.8171C78.5447 33.9585 78.6861 34.0843 78.8747 34.1943C79.0632 34.3043 79.3068 34.4143 79.6054 34.5243C79.9197 34.6185 80.3047 34.7207 80.7604 34.8307C81.609 35.0507 82.3318 35.2707 82.929 35.4907C83.5418 35.7107 84.0368 35.9621 84.414 36.245C84.8068 36.5278 85.0897 36.8578 85.2625 37.235C85.4511 37.5964 85.5454 38.0364 85.5454 38.555C85.5454 39.765 85.0975 40.7235 84.2018 41.4307C83.3061 42.1221 82.0882 42.4678 80.5482 42.4678ZM94.9992 41.5957C94.5749 41.7843 94.0564 41.9728 93.4435 42.1614C92.8306 42.35 92.1863 42.4443 91.5106 42.4443C91.0706 42.4443 90.6542 42.3892 90.2614 42.2792C89.8842 42.1693 89.5463 41.9964 89.2478 41.7607C88.9649 41.5093 88.7371 41.195 88.5642 40.8178C88.3913 40.425 88.3049 39.9535 88.3049 39.4035V32.3085H86.6785V29.8807H88.3049V25.8735H91.4635V29.8807H94.0564V32.3085H91.4635V38.3428C91.4635 38.7828 91.5735 39.0971 91.7935 39.2857C92.0292 39.4585 92.3121 39.545 92.6421 39.545C92.9721 39.545 93.2942 39.49 93.6085 39.38C93.9228 39.27 94.1742 39.1757 94.3628 39.0971L94.9992 41.5957Z" fill="white"/>
<path d="M10.4128 4.95793H5.81639V16.6965H4.91479V4.95793H0.318359V4.14471H10.4128V4.95793ZM22.0885 4.14471V16.6965H21.1869V10.6858H13.2669V16.6965H12.3653V4.14471H13.2669V9.87257H21.1869V4.14471H22.0885ZM33.7272 15.8833V16.6965H25.3653V4.14471H33.5681V4.95793H26.2669V9.89025H32.6488V10.6681H26.2669V15.8833H33.7272Z" fill="white"/>
<path d="M25.8418 42.2322C29.6388 42.2322 32.7168 39.1542 32.7168 35.3572C32.7168 31.5603 29.6388 28.4822 25.8418 28.4822C22.0448 28.4822 18.9668 31.5603 18.9668 35.3572C18.9668 39.1542 22.0448 42.2322 25.8418 42.2322Z" fill="#F5D8B9"/>
</svg>
